<svg width="580" height="400" xmlns="http://www.w3.org/2000/svg" style="vector-effect: non-scaling-stroke;" stroke="null">
 <!-- Created with Method Draw - http://github.com/duopixel/Method-Draw/ -->

 <g stroke="null">
  <title stroke="null">background</title>
  <rect stroke="null" fill="#ffffff" id="canvas_background" height="402" width="582" y="-1" x="-1"/>
  <g style="vector-effect: non-scaling-stroke;" stroke="null" display="none" overflow="visible" y="0" x="0" height="100%" width="100%" id="canvasGrid">
   <rect fill="url(#gridpattern)" stroke-width="0" y="0" x="0" height="100%" width="100%"/>
  </g>
 </g>
 <g stroke="null">
  <title stroke="null">Layer 1</title>
  <rect stroke="#000" id="svg_1" height="57.297173" width="173.985041" y="41.052736" x="81.879504" stroke-width="1.5" fill="#fff"/>
  <rect stroke="#000" style="vector-effect: non-scaling-stroke;" id="svg_2" height="16.216181" width="59.184213" y="71.178268" x="94.013068" stroke-width="1.5" fill="#CFCA6D"/>
  <rect stroke="#000" id="svg_8" height="59.724871" width="254.046575" y="111.722024" x="230.107185" fill-opacity="null" stroke-opacity="null" stroke-width="1.5" fill="#fff"/>
  <path stroke="#000" style="vector-effect: non-scaling-stroke;" id="svg_12" d="m477.726086,132.984904c0,3.18434 -53.034,5.76575 -118.45475,5.76575m118.45475,-5.76575l0,0c0,3.18434 -53.034,5.76575 -118.45475,5.76575c-65.42073,0 -118.45471,-2.58141 -118.45471,-5.76575m0,0l0,0c0,-3.18434 53.03398,-5.76575 118.45471,-5.76575c65.42075,0 118.45475,2.58141 118.45475,5.76575l0,23.06302c0,3.18434 -53.034,5.76575 -118.45475,5.76575c-65.42073,0 -118.45471,-2.58141 -118.45471,-5.76575l0,-23.06302z" stroke-opacity="null" stroke-width="1.5" fill="#7AD6CA"/>
  <path stroke="#000" id="svg_13" d="m199.645026,169.326318c0,4.766049 -39.132802,8.629691 -87.4056,8.629691m87.4056,-8.629691l0,0c0,4.766049 -39.132802,8.629691 -87.4056,8.629691c-48.272753,0 -87.40557,-3.863642 -87.40557,-8.629691m0,0l0,0c0,-4.766049 39.132817,-8.6297 87.40557,-8.6297c48.272798,0 87.4056,3.863651 87.4056,8.6297l0,34.518791c0,4.76604 -39.132802,8.629673 -87.4056,8.629673c-48.272753,0 -87.40557,-3.863633 -87.40557,-8.629673l0,-34.518791z" stroke-opacity="null" stroke-width="1.5" fill="#619E73"/>
  <text stroke="#000" style="vector-effect: non-scaling-stroke;" xml:space="preserve" text-anchor="start" font-family="Helvetica, Arial, sans-serif" font-size="6" id="svg_14" y="49.099515" x="90.051687" fill-opacity="null" stroke-opacity="null" stroke-width="0" fill="#000000">Operator Deployment</text>
  <text style="cursor: move;" stroke="#000" xml:space="preserve" text-anchor="start" font-family="Helvetica, Arial, sans-serif" font-size="6" id="svg_15" y="80.907976" x="96.730428" fill-opacity="null" stroke-opacity="null" stroke-width="0" fill="#000000">configmap controller</text>
  <text stroke="#000" style="vector-effect: non-scaling-stroke;" xml:space="preserve" text-anchor="start" font-family="Helvetica, Arial, sans-serif" font-size="6" id="svg_17" y="137.435039" x="316.73006" stroke-opacity="null" stroke-width="0" fill="#000000">apiserver</text>
  <rect stroke="#000" style="vector-effect: non-scaling-stroke;" id="svg_18" height="10.545454" width="42.181815" y="144.164238" x="283.575942" stroke-opacity="null" stroke-width="1.5" fill="#9ACEE6"/>
  <text stroke="#000" style="vector-effect: non-scaling-stroke;" transform="matrix(0.9878257513046265,0,0,1.1700132166978523,1.1869546027583056,-12.186912311837656) " xml:space="preserve" text-anchor="start" font-family="Helvetica, Arial, sans-serif" font-size="5" id="svg_20" y="139.236613" x="295.846829" fill-opacity="null" stroke-opacity="null" stroke-width="0" fill="#000000">configmap</text>
  <rect stroke="#000" style="vector-effect: non-scaling-stroke;" id="svg_24" height="10.90909" width="56.363636" y="144.64841" x="362.071278" stroke-opacity="null" stroke-width="1.5" fill="#9ACEE6"/>
  <text stroke="#000" style="vector-effect: non-scaling-stroke;" xml:space="preserve" text-anchor="start" font-family="Helvetica, Arial, sans-serif" font-size="5" id="svg_28" y="151.893597" x="368.151921" stroke-opacity="null" stroke-width="0" fill="#000000">TopolvmCluster(CRD)</text>
  <text stroke="#000" style="vector-effect: non-scaling-stroke;" xml:space="preserve" text-anchor="start" font-family="Helvetica, Arial, sans-serif" font-size="6" id="svg_32" y="172.340519" x="117.756119" fill-opacity="null" stroke-opacity="null" stroke-width="0" fill="#000000">Node1</text>
  <rect stroke="#000" id="svg_47" height="17.724015" width="50.554882" y="183.781293" x="90.682971" stroke-opacity="null" stroke-width="1.5" fill="#7DD8B5"/>
  <text stroke="#000" xml:space="preserve" text-anchor="start" font-family="Helvetica, Arial, sans-serif" font-size="6" id="svg_53" y="189.852974" x="93.935199" fill-opacity="null" stroke-opacity="null" stroke-width="0" fill="#000000">Deployment</text>
  <text stroke="#000" transform="matrix(1,0,0,0.8889442682266235,0,21.310553779825568) " xml:space="preserve" text-anchor="start" font-family="Helvetica, Arial, sans-serif" font-size="6" id="svg_54" y="197.924672" x="97.389969" fill-opacity="null" stroke-opacity="null" stroke-width="0" fill="#000000">topolvm-node</text>
  <rect stroke="#000" style="vector-effect: non-scaling-stroke;" id="svg_55" height="16.216181" width="67.290558" y="69.286788" x="181.29135" stroke-width="1.5" fill="#CFCA6D"/>
  <text stroke="#000" style="vector-effect: non-scaling-stroke;" transform="matrix(0.9173081912418724,0,0,1,15.730561033188202,0) " xml:space="preserve" text-anchor="start" font-family="Helvetica, Arial, sans-serif" font-size="6" id="svg_56" y="80.048187" x="185.000645" fill-opacity="null" stroke-opacity="null" stroke-width="0" fill="#000000">topolvmcluster controller</text>
  <rect stroke="#000" id="svg_57" height="16.216181" width="55.982784" y="183.483226" x="30.531247" stroke-width="1.5" fill="#CFCA6D"/>
  <text stroke="#000" xml:space="preserve" text-anchor="start" font-family="Helvetica, Arial, sans-serif" font-size="6" id="svg_58" y="195.308139" x="50.732872" stroke-opacity="null" stroke-width="0" fill="#000000">prepare-vg</text>
  <text stroke="#000" xml:space="preserve" text-anchor="start" font-family="Helvetica, Arial, sans-serif" font-size="6" id="svg_59" y="190.933822" x="34.440711" stroke-opacity="null" stroke-width="0" fill="#000000">Job</text>
  <path stroke="#000" id="svg_75" d="m320.515478,236.388894c0,5.33467 -27.391251,9.65927 -61.180103,9.65927m61.180103,-9.65927l0,0c0,5.33467 -27.391251,9.65927 -61.180103,9.65927c-33.788824,0 -61.180089,-4.3246 -61.180089,-9.65927m0,0l0,0c0,-5.33467 27.391265,-9.65928 61.180089,-9.65928c33.788852,0 61.180103,4.32461 61.180103,9.65928l0,38.63711c0,5.33466 -27.391251,9.65925 -61.180103,9.65925c-33.788824,0 -61.180089,-4.32459 -61.180089,-9.65925l0,-38.63711z" stroke-opacity="null" stroke-width="1.5" fill="#619E73"/>
  <text stroke="#000" style="cursor: move; vector-effect: non-scaling-stroke;" xml:space="preserve" text-anchor="start" font-family="Helvetica, Arial, sans-serif" font-size="6" id="svg_76" y="242.880976" x="249.962633" fill-opacity="null" stroke-opacity="null" stroke-width="0" fill="#000000">Node2</text>
  <rect stroke="#000" id="svg_77" height="15.021369" width="47.080054" y="254.778762" x="269.598994" stroke-opacity="null" stroke-width="1.5" fill="#7DD8B5"/>
  <text style="cursor: move;" stroke="#000" xml:space="preserve" text-anchor="start" font-family="Helvetica, Arial, sans-serif" font-size="6" id="svg_78" y="260.708602" x="271.692944" fill-opacity="null" stroke-opacity="null" stroke-width="0" fill="#000000">Deployment</text>
  <text stroke="#000" transform="matrix(1.0106141567230225,0,0,1,-3.3328452110290527,0) " xml:space="preserve" text-anchor="start" font-family="Helvetica, Arial, sans-serif" font-size="6" id="svg_79" y="265.572407" x="277.637594" fill-opacity="null" stroke-opacity="null" stroke-width="0" fill="#000000">topolvm-node</text>
  <rect stroke="#000" id="svg_80" height="16.216181" width="43.241739" y="256.86817" x="205.783211" stroke-width="1.5" fill="#CFCA6D"/>
  <text stroke="#000" xml:space="preserve" text-anchor="start" font-family="Helvetica, Arial, sans-serif" font-size="6" id="svg_81" y="267.849978" x="213.519534" stroke-opacity="null" stroke-width="0" fill="#000000">prepare-vg</text>
  <text stroke="#000" xml:space="preserve" text-anchor="start" font-family="Helvetica, Arial, sans-serif" font-size="6" id="svg_82" y="261.78945" x="208.463479" stroke-opacity="null" stroke-width="0" fill="#000000">Job</text>
  <path stroke="#000" id="svg_114" d="m250.763857,143.160101" opacity="0.5" fill-opacity="null" stroke-opacity="null" stroke-width="1.5" fill="none"/>
  <path stroke="#000" id="svg_120" d="m126.769581,89.211714" opacity="0.5" fill-opacity="null" stroke-opacity="null" stroke-width="1.5" fill="#fff"/>
  <path stroke="#000" style="vector-effect: non-scaling-stroke;" transform="rotate(13 281.37512207031256,143.3286285400391) " id="svg_155" d="m281.75733,143.387511l-3.584766,-3.651026l6.605317,3.554l-6.805553,3.630279l3.785001,-3.533253z" stroke-opacity="null" stroke-width="0.2" fill="#FFAC8D"/>
  <path stroke="#000" transform="rotate(56 272.7948913574219,253.31739807128906) " id="svg_156" d="m273.177116,253.376281l-3.58477,-3.65103l6.60532,3.554l-6.80556,3.63028l3.78501,-3.53325z" stroke-opacity="null" stroke-width="0.2" fill="#FFAC8D"/>
  <text stroke="#000" transform="rotate(27 168.21862792968747,101.41828918457036) " xml:space="preserve" text-anchor="start" font-family="Helvetica, Arial, sans-serif" font-size="5" id="svg_158" y="103.118957" x="161.684704" fill-opacity="null" stroke-opacity="null" stroke-width="0" fill="#000000">watch</text>
  <line stroke="#000" style="vector-effect: non-scaling-stroke;" stroke-linecap="null" stroke-linejoin="null" id="svg_159" y2="142.158291" x2="279.964977" y1="87.906511" x1="136.341069" fill-opacity="null" stroke-opacity="null" stroke-width="0.2" fill="none"/>
  <line stroke="#000" stroke-linecap="null" stroke-linejoin="null" id="svg_160" y2="180.033868" x2="74.284218" y1="87.534358" x1="212.598993" fill-opacity="null" stroke-opacity="null" stroke-width="0.2" fill="none"/>
  <line stroke="#000" stroke-linecap="null" stroke-linejoin="null" id="svg_161" y2="253.84282" x2="213.744034" y1="88.448142" x1="213.075196" fill-opacity="null" stroke-opacity="null" stroke-width="0.2" fill="none"/>
  <line stroke="#000" stroke-linecap="null" stroke-linejoin="null" id="svg_162" y2="177.745875" x2="118.892451" y1="86.622701" x1="128.704951" fill-opacity="null" stroke-opacity="null" stroke-width="0.2" fill="none"/>
  <line stroke="#000" stroke-linecap="null" stroke-linejoin="null" id="svg_163" y2="255.993132" x2="275.032551" y1="89.836893" x1="136.8309" fill-opacity="null" stroke-opacity="null" stroke-width="0.2" fill="none"/>
  <line stroke="#000" transform="rotate(95.97433471679688 255.67771911621097,199.5415191650391) " stroke-linecap="null" stroke-linejoin="null" id="svg_164" y2="199.36231" x2="255.67771" y1="199.720733" x1="255.67771" fill-opacity="null" stroke-opacity="null" stroke-width="0.2" fill="none"/>
  <path stroke="#000" style="vector-effect: non-scaling-stroke;" transform="rotate(83 214.15391540527344,253.7601623535156) " id="svg_165" d="m214.536132,253.819062l-3.58477,-3.65103l6.60532,3.554l-6.80556,3.63028l3.78501,-3.53325z" stroke-opacity="null" stroke-width="0.2" fill="#FFAC8D"/>
  <path stroke="#000" transform="rotate(105 118.85205078125,177.68798828125) " id="svg_166" d="m119.234283,177.746868l-3.58477,-3.65103l6.60532,3.554l-6.80556,3.63028l3.78501,-3.53325z" stroke-opacity="null" stroke-width="0.2" fill="#FFAC8D"/>
  <path stroke="#000" transform="rotate(127 73.54742431640626,180.34530639648435) " id="svg_167" d="m73.934208,180.40419l-3.627476,-3.65103l6.684011,3.554l-6.886637,3.63028l3.830102,-3.53325z" stroke-opacity="null" stroke-width="0.2" fill="#FFAC8D"/>
  <text stroke="#000" transform="rotate(2 174.54782104492216,138.4574737548827) matrix(1.4125611782073975,0,0,3.011096239089966,-16.11354482533261,-273.35197162255645) " xml:space="preserve" text-anchor="start" font-family="Helvetica, Arial, sans-serif" font-size="3" id="svg_168" y="137.788766" x="130.806091" stroke-opacity="null" stroke-width="0" fill="#000000">create</text>
  <text style="cursor: move;" stroke="#000" transform="rotate(2 126.0058364868156,115.34792327880872) matrix(1.4125611782073975,0,0,3.011096239089966,-16.11354482533261,-273.35197162255645) " xml:space="preserve" text-anchor="start" font-family="Helvetica, Arial, sans-serif" font-size="3" id="svg_169" y="130.114159" x="96.442697" stroke-opacity="null" stroke-width="0" fill="#000000">create</text>
  <text stroke="#000" transform="rotate(2 143.87959289550716,133.39540100097634) matrix(1.4125611782073975,0,0,3.011096239089966,-16.11354482533261,-273.35197162255645) " xml:space="preserve" text-anchor="start" font-family="Helvetica, Arial, sans-serif" font-size="3" id="svg_170" y="136.110624" x="109.096959" stroke-opacity="null" stroke-width="0" fill="#000000">create</text>
  <text stroke="#000" transform="rotate(2 258.2323303222637,196.84951782226452) matrix(1.4125611782073975,0,0,3.011096239089966,-16.11354482533261,-273.35197162255645) " xml:space="preserve" text-anchor="start" font-family="Helvetica, Arial, sans-serif" font-size="3" id="svg_171" y="157.181214" x="184.626196" stroke-opacity="null" stroke-width="0" fill="#000000">create /update</text>
  <line stroke="#000" stroke-linecap="null" stroke-linejoin="null" id="svg_172" y2="157.946491" x2="358.492632" y1="255.993132" x1="231.304953" stroke-opacity="null" stroke-width="0.2" fill="none"/>
  <path stroke="#000" style="vector-effect: non-scaling-stroke;" transform="rotate(-43 359.5259704589844,157.68304443359378) " id="svg_173" d="m359.878767,157.741957l-3.308617,-3.65103l6.096479,3.554l-6.281293,3.63028l3.493431,-3.53325z" stroke-opacity="null" stroke-width="0.2" fill="#FFAC8D"/>
  <text style="cursor: move;" font-weight="normal" stroke="#000" font-style="normal" transform="rotate(-48 307.5148315429688,193.60772705078128) matrix(1.5720343589782713,0,0,1.3098887205123901,-74.931652698441,-79.73944701361161) " xml:space="preserve" text-anchor="start" font-family="Helvetica, Arial, sans-serif" font-size="3" id="svg_175" y="209.677397" x="240.860204" fill-opacity="null" stroke-opacity="null" stroke-width="0" fill="#000000">Get</text>
  <line stroke="#000" style="vector-effect: non-scaling-stroke;" stroke-linecap="null" stroke-linejoin="null" id="svg_176" y2="158.305128" x2="284.711165" y1="254.230215" x1="222.577232" fill-opacity="null" stroke-opacity="null" stroke-width="0.2" fill="none"/>
  <path stroke="#000" style="vector-effect: non-scaling-stroke;" transform="rotate(-67 286.4027099609375,157.03085327148438) " id="svg_179" d="m286.78495,157.089724l-3.58477,-3.65103l6.60532,3.554l-6.80556,3.63028l3.78501,-3.53325z" stroke-opacity="null" stroke-width="0.2" fill="#FFAC8D"/>
  <text stroke="#000" transform="rotate(4 211.8335418701163,147.44332885742196) matrix(1.3237818787028746,0,0,3.00389245862695,-3.717026769049604,-272.14661812565566) " xml:space="preserve" text-anchor="start" font-family="Helvetica, Arial, sans-serif" font-size="3" id="svg_180" y="140.720285" x="158.664123" stroke-opacity="null" stroke-width="0" fill="#000000">create</text>
  <line stroke="#000" style="vector-effect: non-scaling-stroke;" stroke-linecap="null" stroke-linejoin="null" id="svg_181" y2="139.576702" x2="378.812415" y1="80.197244" x1="244.959428" fill-opacity="null" stroke-opacity="null" stroke-width="0.2" fill="none"/>
  <path stroke="#000" style="vector-effect: non-scaling-stroke;" transform="rotate(30 380.5037231445313,141.04449462890628) " id="svg_182" d="m380.885957,141.10338l-3.58477,-3.65103l6.60532,3.554l-6.80556,3.63028l3.78501,-3.53325z" stroke-opacity="null" stroke-width="0.2" fill="#FFAC8D"/>
  <text stroke="#000" transform="matrix(1.1086761951446533,0,0,1,-25.61362074315548,0) " xml:space="preserve" text-anchor="start" font-family="Helvetica, Arial, sans-serif" font-size="4" id="svg_183" y="97.554863" x="277.835969" stroke-opacity="null" stroke-width="0" fill="#000000">Watch / Update</text>
  <rect stroke="#000" id="svg_184" height="15.793554" width="51.713147" y="183.768369" x="145.584137" stroke-opacity="null" stroke-width="1.5" fill="#7DD8B5"/>
  <text stroke="#000" transform="matrix(1,0,0,0.8693736821218039,0,36.98963247560563) " xml:space="preserve" text-anchor="start" font-family="Helvetica, Arial, sans-serif" font-size="6" id="svg_185" y="174.929153" x="148.471091" fill-opacity="null" stroke-opacity="null" stroke-width="0" fill="#000000">Deployment</text>
  <text stroke="#000" xml:space="preserve" text-anchor="start" font-family="Helvetica, Arial, sans-serif" font-size="6" id="svg_186" y="195.678649" x="148.110483" fill-opacity="null" stroke-opacity="null" stroke-width="0" fill="#000000">topolvm-controller</text>
  <line stroke-linecap="null" stroke-linejoin="null" id="svg_191" y2="185.682835" x2="180.776077" y1="88.90432" x1="212.407965" stroke-opacity="null" stroke-width="0.2" stroke="#000" fill="none"/>
  <path stroke="#000" transform="rotate(112 182.5348052978516,181.5298614501953) " id="svg_192" d="m182.917023,181.588743l-3.58477,-3.65103l6.60532,3.554l-6.80556,3.63028l3.78501,-3.53325z" stroke-opacity="null" stroke-width="0.2" fill="#FFAC8D"/>
  <text stroke="#000" transform="rotate(2 194.644561767578,134.62269592285134) matrix(1.4125611782073975,0,0,3.011096239089966,-16.11354482533261,-273.35197162255645) " xml:space="preserve" text-anchor="start" font-family="Helvetica, Arial, sans-serif" font-size="3" id="svg_193" y="136.519459" x="145.037708" stroke-opacity="null" stroke-width="0" fill="#000000">create</text>
 </g>
</svg>