<svg id="图层_1" data-name="图层 1" xmlns="http://www.w3.org/2000/svg" viewBox="0 0 360.18 294.01"><defs><style>.cls-1,.cls-5{fill:#2965b0;}.cls-1,.cls-2,.cls-3{fill-rule:evenodd;}.cls-2{fill:#fff;}.cls-4{fill:#34b6eb;}</style></defs><title>画板 1 副本</title><path class="cls-1" d="M55.88,181.55c-.91-.45-1.42-.73-1.42-.73.63.43,1.24.84,1.85,1.23Z"/><path class="cls-1" d="M128.43,90c-8.71-1.46-28.72-5.65-48.16-15.61-15.59-8.85-34.21-19-29.55-14.33,0,0,2.15,1.14,5.81,3.34l-5.81-3.34S89.36,89.84,103.4,99.2c.34.34.69.66,1,1a25.6,25.6,0,0,0-13.6-1.7s37.8,11.44,36.67,54.7a27.86,27.86,0,0,1,7-.9,27.35,27.35,0,0,1,8,1.2l.07-.08.08.12A27.45,27.45,0,1,1,118,201.66a12.11,12.11,0,0,1-2-1.62,27.4,27.4,0,0,1-9-20.29c0-.62,0-1.24.07-1.85-.33.28-.67.53-1,.79a31.49,31.49,0,0,1-49.8,3.4c-.62-.41-1.25-.83-1.88-1.27,0,0,20.74,30.88,52.69,35.3s67.32-2,81.59-41.47C202.52,136.6,176.1,85.91,128.43,90Z"/><path class="cls-2" d="M129.78,108c.17,7.79,9.29,11.77,16,9.16,7.73-3,7.29-15.13.76-19.1A10.5,10.5,0,0,0,132.13,101a12,12,0,0,0-2.35,7Z"/><path class="cls-3" d="M140.53,108.68a2.13,2.13,0,0,0,1.3-3.79c-1.28-.94-3.21-.53-3.35,1.08-.11,1.35.55,2.67,2.05,2.71Z"/><path class="cls-4" d="M257,201.86c-14.22,2.07-23.69,0-31.38-5.3-8.39-6-12.27-14.69-13.9-22.95-.81-6.28.29-14.6,1.41-20.69q1-3.88,1.76-8.11v0h0q.59-3.22,1-6.66l-3.61,1.35,3.61-4.37s-.24-14.69-1.59-17.62a16,16,0,0,0-5.83,1.56s0-1.12,4.71-5.61a48.69,48.69,0,0,0-1.59-6.9c-.59-2-1.38-4.41-2.45-7.14,0,0,0,0,0-.08A39.45,39.45,0,0,1,207.48,77a24.79,24.79,0,0,1,9.18-12c7.06-4.59,17.85-8.65,34.22-11.07,0,0-84.85-16.7-113.88,29l9.78,1.27c11.78,2.38,31.41,9.26,43,29.18,16.07,27.55,16.43,59.1-15.3,88.59-2.75,2.24-5.63,4.68-8.5,7.25-13,11.7,24.85-12.58,41.57-19.48s-21.08,27.61,23.51,19.48,20.82,3.41,27.36,10.79,24-2.65,24-2.65C247.55,229,280.61,198.43,257,201.86Z"/><path class="cls-5" d="M263.16,192.5c10.8-4.49,22.15-9.4,29-18.86,1.3-1.8,2.46-3.77,4.24-5.1s4.58-2.06,6.18-.52a7.45,7.45,0,0,1,2,6.16,12.72,12.72,0,0,1-2.64,6.09c-3.15,4.19-7.87,7-12.84,8.67s-10.21,2.35-15.41,3S268.5,192,263.16,192.5Z"/><path class="cls-5" d="M284.3,215.69a4.29,4.29,0,0,0,3.1,1.13,30.39,30.39,0,0,0,8.82-.73c2.73-.63,5.5-1.73,7.29-3.9s2.23-5.62.37-7.73c-.9-1-2-.51-3.23,0a13.3,13.3,0,0,0-3.41,2.21C292.7,210.32,290.08,214.93,284.3,215.69Z"/><path class="cls-4" d="M304.93,189.51l0-.06c0-.13-.12-.23-.34-.38a5,5,0,0,0-7.89.57h0s-5,8.2-7.1,10.31a7.06,7.06,0,0,1-3.4,2.05,27.94,27.94,0,0,0,14-2.63,8.15,8.15,0,0,0,1.37-.73,7.71,7.71,0,0,0,3.62-3.92h0a4.64,4.64,0,0,0,.69-2.41A4.72,4.72,0,0,0,304.93,189.51Z"/></svg>